<?xml version="1.0" standalone="no"?>
<!DOCTYPE svg PUBLIC "-//W3C//DTD SVG 20010904//EN"
 "http://www.w3.org/TR/2001/REC-SVG-20010904/DTD/svg10.dtd">
<svg version="1.0" xmlns="http://www.w3.org/2000/svg"
 width="512.000000pt" height="512.000000pt" viewBox="0 0 512.000000 512.000000"
 preserveAspectRatio="xMidYMid meet">
<metadata>
Created by potrace 1.14, written by Peter Selinger 2001-2017
</metadata>
<g transform="translate(0.000000,512.000000) scale(0.100000,-0.100000)"
fill="#000000" stroke="none">
<path d="M2726 3915 c-53 -19 -84 -41 -102 -77 -13 -26 -77 -300 -99 -428 -3
-19 -11 -55 -16 -80 -6 -25 -13 -55 -15 -67 -2 -13 -6 -33 -8 -45 -2 -13 -9
-43 -15 -68 -5 -25 -12 -58 -15 -75 -3 -16 -8 -39 -10 -50 -3 -11 -19 -90 -36
-175 -17 -85 -49 -240 -71 -345 -22 -104 -42 -203 -45 -220 -3 -16 -14 -68
-24 -115 -10 -47 -22 -101 -25 -120 -3 -19 -12 -64 -20 -100 -8 -36 -16 -76
-19 -90 -2 -14 -7 -36 -10 -50 -3 -14 -8 -36 -10 -50 -4 -22 -9 -44 -31 -150
-2 -14 -9 -47 -15 -75 -6 -27 -13 -61 -16 -75 -16 -68 -15 -114 1 -156 35 -92
149 -135 233 -89 65 35 82 61 103 154 14 62 80 381 84 406 2 11 15 76 29 145
34 162 33 156 45 220 6 30 13 64 15 75 14 64 68 324 72 345 2 14 7 36 10 50 6
28 132 642 138 676 2 12 23 111 47 220 46 218 51 273 26 321 -37 70 -131 112
-201 88z"/>
<path d="M1365 3631 c-54 -25 -988 -964 -1002 -1006 -14 -41 -9 -104 10 -140
8 -17 227 -241 486 -500 335 -335 483 -475 512 -488 136 -61 283 86 222 222
-13 29 -134 157 -415 439 -219 219 -398 401 -398 406 0 4 178 186 396 404 285
285 402 409 416 439 63 142 -87 291 -227 224z"/>
<path d="M3612 3630 c-89 -40 -125 -147 -79 -235 8 -17 193 -209 411 -427 218
-218 396 -401 396 -405 0 -4 -179 -186 -397 -405 -248 -248 -405 -412 -416
-435 -21 -46 -19 -96 5 -145 42 -86 149 -120 237 -73 47 25 969 957 985 995
19 46 13 111 -13 152 -31 51 -963 975 -991 984 -45 14 -98 12 -138 -6z"/>
</g>
</svg>
